<svg width="1180" height="125" viewBox="0 0 1180 125" fill="none" xmlns="http://www.w3.org/2000/svg">
<path opacity="0.02" d="M0 123.066L0 0L13.551 0L13.551 123.066H0ZM91.5924 123.066L91.5924 0L104.281 0L179.921 98.6289L179.921 0L193.125 0L193.125 123.066H182.323L104.797 22.1518L104.797 123.066H91.5924ZM269.969 123.066V0L356.242 0V12.8341L283.52 12.8341V56.7861L348.523 56.7861V69.4446L283.52 69.4446V123.066H269.969ZM473.428 125C458.218 125 446.099 120.37 437.068 111.111C428.033 101.735 423.517 88.5492 423.517 71.5542V0L437.068 0V70.675C437.068 83.9196 440.267 94.1749 446.673 101.442C453.19 108.591 462.222 112.166 473.771 112.166C485.089 112.166 493.951 108.709 500.353 101.793C506.759 94.8781 509.958 84.7984 509.958 71.5542V0L523.509 0V70.4994C523.509 88.0804 518.994 101.559 509.958 110.935C500.927 120.312 488.75 125 473.428 125ZM630.153 123.066V12.8341L589.847 12.8341V0L684.18 0V12.8341L643.874 12.8341V123.066H630.153ZM800.541 125C785.331 125 773.212 120.37 764.18 111.111C755.145 101.735 750.629 88.5492 750.629 71.5542V0L764.18 0V70.675C764.18 83.9196 767.38 94.1749 773.785 101.442C780.303 108.591 789.334 112.166 800.884 112.166C812.202 112.166 821.064 108.709 827.466 101.793C833.872 94.8781 837.071 84.7984 837.071 71.5542V0L850.622 0V70.4994C850.622 88.0804 846.106 101.559 837.071 110.935C828.04 120.312 815.863 125 800.541 125ZM925.536 123.066V0L977.161 0C991.91 0 1003.29 4.10221 1011.29 12.3065C1017.47 18.6357 1020.56 26.8402 1020.56 36.9199C1020.56 46.7652 1017.58 54.7353 1011.64 60.8298C1005.69 66.9246 997.8 70.9095 987.967 72.785L1024.84 123.066L1008.21 123.066L973.389 75.2463H939.087V123.066L925.536 123.066ZM939.087 62.7638L975.96 62.7638C985.107 62.7638 992.541 60.4781 998.258 55.9073C1003.97 51.3361 1006.83 45.0656 1006.83 37.0955C1006.83 29.4774 1004.09 23.5585 998.6 19.3389C993.226 15.0025 985.738 12.8341 976.133 12.8341L939.087 12.8341V62.7638ZM1092.36 123.066V0L1179.15 0V12.6581L1105.91 12.6581V54.6765L1171.43 54.6765V67.335H1105.91V110.408H1180V123.066L1092.36 123.066Z" fill="white"/>
</svg>
