<svg width="205" height="34" viewBox="0 0 205 34" fill="none" xmlns="http://www.w3.org/2000/svg">
<path d="M74.1516 16.9415V3.46849H75.6328V16.9415H74.1516ZM84.1627 16.9415V3.46849H85.5496L93.8171 14.2662V3.46849H95.2603V16.9415H94.0796L85.606 5.89362V16.9415H84.1627ZM103.659 16.9415V3.46849H113.089V4.87354H105.141V9.68531H112.245V11.0711H105.141V16.9415H103.659ZM125.898 17.1532C124.235 17.1532 122.911 16.6464 121.923 15.6327C120.936 14.6062 120.442 13.1627 120.442 11.3021V3.46849H121.923V11.2058C121.923 12.6558 122.273 13.7785 122.973 14.5741C123.686 15.3568 124.673 15.7482 125.935 15.7482C127.172 15.7482 128.141 15.3697 128.841 14.6126C129.541 13.8555 129.89 12.752 129.89 11.3021V3.46849H131.371V11.1866C131.371 13.1113 130.878 14.5869 129.89 15.6134C128.903 16.64 127.572 17.1532 125.898 17.1532ZM143.028 16.9415V4.87354H138.622V3.46849H148.933V4.87354H144.527V16.9415H143.028ZM161.651 17.1532C159.989 17.1532 158.664 16.6464 157.677 15.6327C156.689 14.6062 156.196 13.1627 156.196 11.3021V3.46849H157.677V11.2058C157.677 12.6558 158.027 13.7785 158.727 14.5741C159.439 15.3568 160.426 15.7482 161.689 15.7482C162.926 15.7482 163.894 15.3697 164.594 14.6126C165.294 13.8555 165.644 12.752 165.644 11.3021V3.46849H167.125V11.1866C167.125 13.1113 166.631 14.5869 165.644 15.6134C164.657 16.64 163.326 17.1532 161.651 17.1532ZM175.313 16.9415V3.46849H180.956C182.568 3.46849 183.812 3.91759 184.686 4.81578C185.361 5.50869 185.699 6.4069 185.699 7.5104C185.699 8.58824 185.374 9.46078 184.724 10.128C184.074 10.7952 183.212 11.2315 182.137 11.4368L186.167 16.9415H184.349L180.543 11.7063H176.794V16.9415H175.313ZM176.794 10.3397H180.825C181.824 10.3397 182.637 10.0895 183.262 9.58909C183.887 9.08865 184.199 8.40217 184.199 7.52962C184.199 6.69561 183.899 6.04763 183.299 5.58567C182.712 5.11093 181.893 4.87354 180.843 4.87354H176.794V10.3397ZM193.547 16.9415V3.46849H203.033V4.85427H195.028V9.45435H202.189V10.8402H195.028V15.5557H203.126V16.9415H193.547Z" fill="white"/>
<path d="M75.1187 29.7058C74.6389 29.7058 74.2262 29.5718 73.88 29.3037C73.5339 29.0356 73.3608 28.6616 73.3608 28.1816C73.3608 27.6766 73.543 27.287 73.9072 27.0127C74.2715 26.7384 74.7604 26.6012 75.3738 26.6012C75.8595 26.6012 76.3389 26.6698 76.8127 26.807V26.6573C76.8127 26.2334 76.6913 25.9093 76.4485 25.6849C76.2056 25.4604 75.8622 25.3482 75.4191 25.3482C74.9579 25.3482 74.4808 25.4635 73.9892 25.6942L73.7799 25.1051C74.3626 24.8308 74.9334 24.6936 75.4921 24.6936C76.1599 24.6936 76.6669 24.8713 77.013 25.2266C77.341 25.5633 77.505 26.0371 77.505 26.648V29.603H76.8127V28.8829C76.3937 29.4315 75.8291 29.7058 75.1187 29.7058ZM75.2551 29.1261C75.6923 29.1261 76.0629 29.0045 76.3665 28.7614C76.67 28.5182 76.8218 28.2065 76.8218 27.8262V27.3774C76.3602 27.2402 75.9021 27.1717 75.4463 27.1717C75.0154 27.1717 74.6784 27.2621 74.4355 27.4429C74.1927 27.6174 74.0712 27.8574 74.0712 28.1629C74.0712 28.4559 74.1836 28.6896 74.4083 28.8642C74.6389 29.0388 74.9212 29.1261 75.2551 29.1261ZM78.9905 29.603V24.7684H79.6918V27.5551L82.2693 24.7684H83.1342L81.167 26.8631L83.189 29.603H82.3603L80.6845 27.3868L79.6918 28.4341V29.603H78.9905ZM86.2802 29.7152C85.6001 29.7152 85.0261 29.4689 84.5586 28.9764C84.0973 28.4777 83.8667 27.8823 83.8667 27.1904C83.8667 26.4984 84.0973 25.9061 84.5586 25.4137C85.0261 24.9149 85.6001 24.6655 86.2802 24.6655C87.0087 24.6655 87.6371 24.9523 88.1654 25.5259L87.7191 26.0121C87.2819 25.5383 86.7994 25.3014 86.2711 25.3014C85.7972 25.3014 85.3967 25.4853 85.0687 25.8532C84.747 26.2147 84.5862 26.6605 84.5862 27.1904C84.5862 27.714 84.7502 28.1598 85.0778 28.5276C85.4117 28.8892 85.8248 29.07 86.3164 29.07C86.8207 29.07 87.2941 28.8268 87.7373 28.3405L88.2017 28.7801C87.6553 29.4035 87.0146 29.7152 86.2802 29.7152ZM91.4194 29.7152C90.7579 29.7152 90.1992 29.4814 89.7439 29.0138C89.2945 28.54 89.0698 27.9322 89.0698 27.1904C89.0698 26.4859 89.2854 25.8906 89.7163 25.4043C90.1476 24.9118 90.6849 24.6655 91.3283 24.6655C92.0024 24.6655 92.5366 24.9087 92.9312 25.395C93.3263 25.8812 93.5234 26.4922 93.5234 27.2278C93.5234 27.3213 93.5202 27.4055 93.5143 27.4803H89.7802C89.8286 27.9727 90.0076 28.3655 90.3175 28.6585C90.6333 28.9453 91.0066 29.0887 91.4379 29.0887C92.0024 29.0887 92.4972 28.8611 92.9222 28.406L93.3594 28.8081C92.8311 29.4128 92.1846 29.7152 91.4194 29.7152ZM89.7802 26.9005H92.813C92.7704 26.4329 92.6186 26.0464 92.3576 25.741C92.1026 25.4292 91.7537 25.2734 91.3102 25.2734C90.9096 25.2734 90.5663 25.4261 90.2812 25.7316C89.9958 26.0371 89.8286 26.4267 89.7802 26.9005ZM96.8732 29.7152C96.1931 29.7152 95.6195 29.4689 95.1519 28.9764C94.6903 28.4777 94.4597 27.8823 94.4597 27.1904C94.4597 26.4984 94.6903 25.9061 95.1519 25.4137C95.6195 24.9149 96.1931 24.6655 96.8732 24.6655C97.6021 24.6655 98.2305 24.9523 98.7588 25.5259L98.3125 26.0121C97.8753 25.5383 97.3924 25.3014 96.8641 25.3014C96.3906 25.3014 95.9897 25.4853 95.6621 25.8532C95.34 26.2147 95.1791 26.6605 95.1791 27.1904C95.1791 27.714 95.3431 28.1598 95.6711 28.5276C96.0051 28.8892 96.4178 29.07 96.9098 29.07C97.4137 29.07 97.8871 28.8268 98.3306 28.3405L98.795 28.7801C98.2486 29.4035 97.608 29.7152 96.8732 29.7152ZM102.077 29.7152C101.397 29.7152 100.823 29.4689 100.355 28.9764C99.8938 28.4777 99.6627 27.8823 99.6627 27.1904C99.6627 26.4984 99.8938 25.9061 100.355 25.4137C100.823 24.9149 101.397 24.6655 102.077 24.6655C102.805 24.6655 103.434 24.9523 103.962 25.5259L103.516 26.0121C103.078 25.5383 102.596 25.3014 102.068 25.3014C101.594 25.3014 101.193 25.4853 100.865 25.8532C100.543 26.2147 100.383 26.6605 100.383 27.1904C100.383 27.714 100.546 28.1598 100.874 28.5276C101.208 28.8892 101.621 29.07 102.113 29.07C102.617 29.07 103.091 28.8268 103.534 28.3405L103.998 28.7801C103.452 29.4035 102.811 29.7152 102.077 29.7152ZM105.886 31.1272C105.546 31.1272 105.212 31.0461 104.884 30.8841L105.121 30.3136C105.346 30.4321 105.592 30.4913 105.859 30.4913C106.071 30.4913 106.25 30.4228 106.396 30.2856C106.542 30.1547 106.685 29.9209 106.824 29.5842L104.684 24.7684H105.458L107.17 28.7988L108.682 24.7684H109.429L107.453 29.7619C107.252 30.2544 107.031 30.6035 106.788 30.8093C106.545 31.0212 106.244 31.1272 105.886 31.1272ZM111.941 29.7058C111.462 29.7058 111.049 29.5718 110.703 29.3037C110.357 29.0356 110.184 28.6616 110.184 28.1816C110.184 27.6766 110.366 27.287 110.73 27.0127C111.094 26.7384 111.583 26.6012 112.196 26.6012C112.682 26.6012 113.162 26.6698 113.635 26.807V26.6573C113.635 26.2334 113.514 25.9093 113.271 25.6849C113.028 25.4604 112.685 25.3482 112.242 25.3482C111.78 25.3482 111.304 25.4635 110.812 25.6942L110.602 25.1051C111.185 24.8308 111.756 24.6936 112.315 24.6936C112.983 24.6936 113.49 24.8713 113.836 25.2266C114.164 25.5633 114.327 26.0371 114.327 26.648V29.603H113.635V28.8829C113.216 29.4315 112.652 29.7058 111.941 29.7058ZM112.078 29.1261C112.515 29.1261 112.886 29.0045 113.189 28.7614C113.493 28.5182 113.645 28.2065 113.645 27.8262V27.3774C113.183 27.2402 112.724 27.1717 112.269 27.1717C111.838 27.1717 111.501 27.2621 111.258 27.4429C111.015 27.6174 110.894 27.8574 110.894 28.1629C110.894 28.4559 111.006 28.6896 111.231 28.8642C111.462 29.0388 111.744 29.1261 112.078 29.1261ZM115.813 31.0992V24.7684H116.514V25.741C116.988 25.024 117.589 24.6655 118.318 24.6655C118.919 24.6655 119.444 24.8962 119.893 25.3576C120.342 25.8126 120.567 26.4236 120.567 27.1904C120.567 27.9447 120.342 28.5525 119.893 29.0138C119.444 29.4752 118.919 29.7058 118.318 29.7058C117.577 29.7058 116.976 29.3629 116.514 28.6772V31.0992H115.813ZM118.19 29.0606C118.664 29.0606 119.058 28.8923 119.374 28.5556C119.69 28.2128 119.848 27.7546 119.848 27.181C119.848 26.6262 119.687 26.1773 119.365 25.8345C119.043 25.4853 118.652 25.3108 118.19 25.3108C117.735 25.3108 117.337 25.4885 116.997 25.8438C116.657 26.1991 116.487 26.648 116.487 27.1904C116.487 27.7327 116.657 28.1816 116.997 28.5369C117.337 28.886 117.735 29.0606 118.19 29.0606ZM121.861 29.603V24.7684H122.562V26.5825H123.819C124.366 26.5825 124.812 26.7041 125.158 26.9472C125.504 27.1841 125.677 27.5457 125.677 28.032C125.677 28.512 125.516 28.8954 125.195 29.1822C124.873 29.4627 124.442 29.603 123.901 29.603H121.861ZM122.562 28.9671H123.838C124.196 28.9671 124.472 28.8892 124.666 28.7333C124.867 28.5774 124.967 28.3499 124.967 28.0507C124.967 27.7764 124.864 27.5675 124.657 27.4242C124.457 27.2745 124.174 27.1997 123.81 27.1997H122.562V28.9671ZM126.524 29.603V24.7684H127.226V29.603H126.524ZM131.521 29.603V24.7684H132.222V28.593L135.018 24.7684H135.701V29.603H135V25.7784L132.194 29.603H131.521ZM141.135 29.603V25.4043H139.45V24.7684H143.531V25.4043H141.846V29.603H141.135ZM146.609 29.7152C145.947 29.7152 145.389 29.4814 144.933 29.0138C144.484 28.54 144.259 27.9322 144.259 27.1904C144.259 26.4859 144.475 25.8906 144.906 25.4043C145.337 24.9118 145.874 24.6655 146.518 24.6655C147.192 24.6655 147.726 24.9087 148.121 25.395C148.516 25.8812 148.713 26.4922 148.713 27.2278C148.713 27.3213 148.71 27.4055 148.704 27.4803H144.97C145.018 27.9727 145.197 28.3655 145.507 28.6585C145.823 28.9453 146.196 29.0887 146.627 29.0887C147.192 29.0887 147.687 28.8611 148.112 28.406L148.549 28.8081C148.021 29.4128 147.374 29.7152 146.609 29.7152ZM144.97 26.9005H148.003C147.96 26.4329 147.808 26.0464 147.547 25.741C147.292 25.4292 146.943 25.2734 146.5 25.2734C146.099 25.2734 145.756 25.4261 145.471 25.7316C145.185 26.0371 145.018 26.4267 144.97 26.9005ZM149.512 29.603L151.361 27.1436L149.585 24.7684H150.387L151.78 26.6386L153.174 24.7684H153.957L152.172 27.1249L154.03 29.603H153.219L151.762 27.6299L150.296 29.603H149.512ZM155.17 29.603V24.7684H155.872V26.8537H158.586V24.7684H159.287V29.603H158.586V27.4896H155.872V29.603H155.17ZM160.854 29.603V24.7684H161.555V28.593L164.352 24.7684H165.034V29.603H164.333V25.7784L161.528 29.603H160.854ZM166.6 29.603V24.7684H167.301V27.5551L169.879 24.7684H170.744L168.777 26.8631L170.799 29.603H169.97L168.294 27.3868L167.301 28.4341V29.603H166.6ZM173.17 29.7058C172.69 29.7058 172.278 29.5718 171.932 29.3037C171.585 29.0356 171.412 28.6616 171.412 28.1816C171.412 27.6766 171.594 27.287 171.959 27.0127C172.323 26.7384 172.812 26.6012 173.425 26.6012C173.911 26.6012 174.39 26.6698 174.864 26.807V26.6573C174.864 26.2334 174.743 25.9093 174.5 25.6849C174.257 25.4604 173.914 25.3482 173.471 25.3482C173.009 25.3482 172.532 25.4635 172.041 25.6942L171.831 25.1051C172.414 24.8308 172.985 24.6936 173.544 24.6936C174.211 24.6936 174.718 24.8713 175.064 25.2266C175.392 25.5633 175.556 26.0371 175.556 26.648V29.603H174.864V28.8829C174.445 29.4315 173.881 29.7058 173.17 29.7058ZM173.307 29.1261C173.744 29.1261 174.114 29.0045 174.418 28.7614C174.722 28.5182 174.873 28.2065 174.873 27.8262V27.3774C174.412 27.2402 173.953 27.1717 173.498 27.1717C173.067 27.1717 172.73 27.2621 172.487 27.4429C172.244 27.6174 172.123 27.8574 172.123 28.1629C172.123 28.4559 172.235 28.6896 172.46 28.8642C172.69 29.0388 172.973 29.1261 173.307 29.1261ZM181.175 29.7058C180.695 29.7058 180.283 29.5718 179.936 29.3037C179.59 29.0356 179.417 28.6616 179.417 28.1816C179.417 27.6766 179.599 27.287 179.964 27.0127C180.328 26.7384 180.817 26.6012 181.43 26.6012C181.916 26.6012 182.396 26.6698 182.869 26.807V26.6573C182.869 26.2334 182.748 25.9093 182.505 25.6849C182.262 25.4604 181.919 25.3482 181.475 25.3482C181.014 25.3482 180.538 25.4635 180.046 25.6942L179.836 25.1051C180.419 24.8308 180.99 24.6936 181.548 24.6936C182.216 24.6936 182.723 24.8713 183.069 25.2266C183.397 25.5633 183.561 26.0371 183.561 26.648V29.603H182.869V28.8829C182.45 29.4315 181.885 29.7058 181.175 29.7058ZM181.311 29.1261C181.749 29.1261 182.119 29.0045 182.423 28.7614C182.726 28.5182 182.878 28.2065 182.878 27.8262V27.3774C182.416 27.2402 181.958 27.1717 181.503 27.1717C181.072 27.1717 180.735 27.2621 180.492 27.4429C180.249 27.6174 180.128 27.8574 180.128 28.1629C180.128 28.4559 180.24 28.6896 180.465 28.8642C180.695 29.0388 180.978 29.1261 181.311 29.1261ZM185.047 31.0992V24.7684H185.748V25.741C186.222 25.024 186.823 24.6655 187.551 24.6655C188.153 24.6655 188.678 24.8962 189.127 25.3576C189.577 25.8126 189.801 26.4236 189.801 27.1904C189.801 27.9447 189.577 28.5525 189.127 29.0138C188.678 29.4752 188.153 29.7058 187.551 29.7058C186.811 29.7058 186.209 29.3629 185.748 28.6772V31.0992H185.047ZM187.424 29.0606C187.897 29.0606 188.292 28.8923 188.608 28.5556C188.924 28.2128 189.081 27.7546 189.081 27.181C189.081 26.6262 188.921 26.1773 188.599 25.8345C188.277 25.4853 187.885 25.3108 187.424 25.3108C186.969 25.3108 186.571 25.4885 186.231 25.8438C185.891 26.1991 185.721 26.648 185.721 27.1904C185.721 27.7327 185.891 28.1816 186.231 28.5369C186.571 28.886 186.969 29.0606 187.424 29.0606ZM191.095 31.0992V24.7684H191.796V25.741C192.27 25.024 192.871 24.6655 193.6 24.6655C194.201 24.6655 194.726 24.8962 195.175 25.3576C195.624 25.8126 195.849 26.4236 195.849 27.1904C195.849 27.9447 195.624 28.5525 195.175 29.0138C194.726 29.4752 194.201 29.7058 193.6 29.7058C192.859 29.7058 192.258 29.3629 191.796 28.6772V31.0992H191.095ZM193.472 29.0606C193.946 29.0606 194.34 28.8923 194.656 28.5556C194.972 28.2128 195.13 27.7546 195.13 27.181C195.13 26.6262 194.969 26.1773 194.647 25.8345C194.325 25.4853 193.934 25.3108 193.472 25.3108C193.017 25.3108 192.619 25.4885 192.279 25.8438C191.939 26.1991 191.769 26.648 191.769 27.1904C191.769 27.7327 191.939 28.1816 192.279 28.5369C192.619 28.886 193.017 29.0606 193.472 29.0606ZM197.207 29.603V22.7766H197.908V29.603H197.207ZM199.955 27.4803C200.003 27.9727 200.183 28.3655 200.492 28.6585C200.808 28.9453 201.181 29.0887 201.612 29.0887C202.177 29.0887 202.672 28.8611 203.097 28.406L203.534 28.8081C203.006 29.4128 202.359 29.7152 201.594 29.7152C200.932 29.7152 200.374 29.4814 199.918 29.0138C199.469 28.54 199.244 27.9322 199.244 27.1904C199.244 26.4859 199.46 25.8906 199.891 25.4043C200.322 24.9118 200.859 24.6655 201.503 24.6655C202.177 24.6655 202.711 24.9087 203.106 25.395C203.501 25.8812 203.698 26.4922 203.698 27.2278C203.698 27.3213 203.695 27.4055 203.689 27.4803H199.955ZM199.955 26.9005H202.987C202.945 26.4329 202.793 26.0464 202.532 25.741C202.277 25.4292 201.928 25.2734 201.485 25.2734C201.084 25.2734 200.741 25.4261 200.456 25.7316C200.17 26.0371 200.003 26.4267 199.955 26.9005Z" fill="white"/>
<path fill-rule="evenodd" clip-rule="evenodd" d="M2.24202 23.204C7.09612 34.2053 18.773 26.5567 23.3341 19.9523C23.6473 19.4996 25.5612 22.3532 30.1267 25.8974C34.6923 29.4416 46.2953 35.6283 54.4598 31.6249C75.634 21.2495 43.4001 -14.5533 24.6706 11.225C23.7639 12.473 23.2133 13.4883 23.0091 13.4917C22.3221 13.4088 21.1726 10.4353 17.6453 6.83517C6.53765 -4.50205 -3.53023 10.128 2.24202 23.204ZM11.7266 9.79682C11.9053 13.9814 13.1681 18.2089 14.007 19.6144C15.0702 21.3956 20.2834 18.5454 21.0862 17.1615C20.3709 15.2328 11.5048 4.60506 11.7266 9.79682ZM34.47 10.5601C33.0452 10.8735 30.0139 12.5202 28.7801 13.6508C26.7573 15.5048 25.5589 16.8444 25.7088 17.0846C28.3931 21.3846 39.6975 25.3361 44.2962 25.2452C53.7967 25.0577 48.1675 16.0788 43.3579 12.9244C39.7101 10.5312 37.3976 9.9161 34.47 10.5601Z" fill="#704A8D"/>
<path fill-rule="evenodd" clip-rule="evenodd" d="M1.88225 21.4735C6.73635 32.4748 18.4133 24.8262 22.9743 18.2217C23.2875 17.769 25.2014 20.6227 29.767 24.1669C34.3325 27.7111 45.9358 33.8978 54.1003 29.8944C75.274 19.519 43.0402 -16.2837 24.3108 9.4945C23.4042 10.7425 22.8535 11.7578 22.6493 11.7612C21.9624 11.6783 20.8128 8.70481 17.2855 5.10466C6.17788 -6.23256 -3.89 8.39747 1.88225 21.4735ZM11.3668 8.0663C11.5455 12.2508 12.8083 16.4783 13.6473 17.8838C14.7105 19.6651 19.9236 16.8149 20.7265 15.431C20.0111 13.5023 11.145 2.87456 11.3668 8.0663ZM34.1102 8.82956C32.6854 9.14301 29.6541 10.7897 28.4203 11.9202C26.3975 13.7743 25.1991 15.1139 25.349 15.3541C28.0333 19.6541 39.3375 23.6056 43.9362 23.5147C53.4368 23.3272 47.808 14.3483 42.9984 11.1939C39.3502 8.80074 37.0378 8.18558 34.1102 8.82956Z" fill="#A369D0"/>
</svg>
