<svg width="20" height="20" viewBox="0 0 20 20" fill="none" xmlns="http://www.w3.org/2000/svg">
<path d="M15.9333 12.45L16.2 12.9916C16.3333 13.2583 16.675 13.5083 16.9583 13.5583L17.3167 13.6166C18.4083 13.8 18.6583 14.6 17.8833 15.3833L17.55 15.7166C17.325 15.9416 17.2083 16.375 17.275 16.6916L17.3167 16.8916C17.6167 18.2083 16.9167 18.7166 15.775 18.025L15.5333 17.875C15.2417 17.7 14.7583 17.7 14.4667 17.875L14.225 18.025C13.075 18.7166 12.3833 18.2083 12.6833 16.8916L12.725 16.6916C12.7917 16.3833 12.675 15.9416 12.45 15.7166L12.1167 15.3833C11.3417 14.5916 11.5917 13.8 12.6833 13.6166L13.0417 13.5583C13.3333 13.5083 13.6667 13.2583 13.8 12.9916L14.0667 12.45C14.5833 11.4083 15.4167 11.4083 15.9333 12.45Z" fill="white"/>
<path d="M13.4916 1.66675H6.50829C3.47496 1.66675 1.66663 3.47508 1.66663 6.50841V13.4917C1.66663 16.5251 3.47496 18.3334 6.50829 18.3334H10.9083C11.2 18.3334 11.4083 18.0334 11.375 17.7417C11.3416 17.4251 11.3583 17.0501 11.4583 16.6167C11.475 16.5584 11.4583 16.4917 11.4083 16.4417L11.225 16.2584C10.5166 15.5417 10.2583 14.6751 10.5083 13.8834C10.7666 13.1001 11.4833 12.5501 12.475 12.3834L12.725 12.3417L12.95 11.8917C13.4083 10.9584 14.1583 10.4167 15 10.4167C15.8416 10.4167 16.5916 10.9584 17.05 11.8917L17.175 12.1501C17.2333 12.2751 17.35 12.3584 17.4833 12.3834C17.5583 12.4001 17.6333 12.4167 17.7083 12.4334C18 12.5084 18.3333 12.2751 18.3333 11.9667V6.50841C18.3333 3.47508 16.525 1.66675 13.4916 1.66675ZM13.55 7.46675L11.625 9.95008C11.3833 10.2584 11.0416 10.4584 10.65 10.5001C10.2666 10.5501 9.87496 10.4417 9.57496 10.2001L8.04996 9.01675C7.99163 8.96675 7.92496 8.96675 7.89163 8.97508C7.85829 8.97508 7.79996 8.99175 7.74996 9.05841L5.76663 11.6334C5.64163 11.7917 5.45829 11.8751 5.26663 11.8751C5.13329 11.8751 4.99996 11.8334 4.88329 11.7417C4.60829 11.5334 4.55829 11.1417 4.76663 10.8667L6.74996 8.29175C6.99163 7.98341 7.33329 7.78341 7.72496 7.73341C8.11663 7.68341 8.49996 7.79175 8.80829 8.03342L10.3333 9.23342C10.3916 9.28342 10.45 9.27508 10.4916 9.27508C10.525 9.27508 10.5833 9.25841 10.6333 9.19175L12.5583 6.70842C12.7666 6.43342 13.1583 6.38342 13.4333 6.60008C13.7166 6.80842 13.7583 7.20008 13.55 7.46675Z" fill="white"/>
</svg>
