<svg width="20" height="20" viewBox="0 0 20 20" fill="none" xmlns="http://www.w3.org/2000/svg">
<path d="M14.1667 3.33325H5.83335C3.33335 3.33325 1.66669 4.58325 1.66669 7.49992V10.4666C1.66669 10.7749 1.98335 10.9666 2.25835 10.8416C3.07502 10.4666 4.01669 10.3249 5.00835 10.4999C7.20002 10.8916 8.80835 12.9249 8.75002 15.1499C8.74169 15.4999 8.69169 15.8416 8.60002 16.1749C8.53335 16.4333 8.74169 16.6749 9.00835 16.6749H14.1667C16.6667 16.6749 18.3334 15.4249 18.3334 12.5083V7.49992C18.3334 4.58325 16.6667 3.33325 14.1667 3.33325ZM10 12.0833C8.85002 12.0833 7.91669 11.1499 7.91669 9.99992C7.91669 8.84992 8.85002 7.91659 10 7.91659C11.15 7.91659 12.0834 8.84992 12.0834 9.99992C12.0834 11.1499 11.15 12.0833 10 12.0833ZM16.0417 11.6666C16.0417 12.0083 15.7584 12.2916 15.4167 12.2916C15.075 12.2916 14.7917 12.0083 14.7917 11.6666V8.33325C14.7917 7.99159 15.075 7.70825 15.4167 7.70825C15.7584 7.70825 16.0417 7.99159 16.0417 8.33325V11.6666Z" fill="white"/>
<path d="M4.16665 11.6667C2.32498 11.6667 0.833313 13.1584 0.833313 15.0001C0.833313 15.6251 1.00831 16.2167 1.31665 16.7167C1.89165 17.6834 2.94998 18.3334 4.16665 18.3334C5.38331 18.3334 6.44165 17.6834 7.01665 16.7167C7.32498 16.2167 7.49998 15.6251 7.49998 15.0001C7.49998 13.1584 6.00831 11.6667 4.16665 11.6667ZM5.80831 14.7251L4.03331 16.3667C3.91665 16.4751 3.75831 16.5334 3.60831 16.5334C3.44998 16.5334 3.29165 16.4751 3.16665 16.3501L2.34165 15.5251C2.09998 15.2834 2.09998 14.8834 2.34165 14.6417C2.58331 14.4001 2.98331 14.4001 3.22498 14.6417L3.62498 15.0417L4.95831 13.8084C5.20831 13.5751 5.60831 13.5917 5.84165 13.8417C6.07498 14.0917 6.05831 14.4917 5.80831 14.7251Z" fill="white"/>
</svg>
