<svg width="20" height="20" viewBox="0 0 20 20" fill="none" xmlns="http://www.w3.org/2000/svg">
<path d="M13.4917 1.66675H6.50832C3.47499 1.66675 1.66666 3.47508 1.66666 6.50841V13.4834C1.66666 16.5251 3.47499 18.3334 6.50832 18.3334H13.4833C16.5167 18.3334 18.325 16.5251 18.325 13.4917V6.50841C18.3333 3.47508 16.525 1.66675 13.4917 1.66675ZM6.35832 15.1251C6.35832 15.4667 6.07499 15.7501 5.73332 15.7501C5.39166 15.7501 5.10832 15.4667 5.10832 15.1251V13.4001C5.10832 13.0584 5.39166 12.7751 5.73332 12.7751C6.07499 12.7751 6.35832 13.0584 6.35832 13.4001V15.1251ZM10.625 15.1251C10.625 15.4667 10.3417 15.7501 9.99999 15.7501C9.65832 15.7501 9.37499 15.4667 9.37499 15.1251V11.6667C9.37499 11.3251 9.65832 11.0417 9.99999 11.0417C10.3417 11.0417 10.625 11.3251 10.625 11.6667V15.1251ZM14.8917 15.1251C14.8917 15.4667 14.6083 15.7501 14.2667 15.7501C13.925 15.7501 13.6417 15.4667 13.6417 15.1251V9.94175C13.6417 9.60008 13.925 9.31675 14.2667 9.31675C14.6083 9.31675 14.8917 9.60008 14.8917 9.94175V15.1251ZM14.8917 7.30842C14.8917 7.65008 14.6083 7.93342 14.2667 7.93342C13.925 7.93342 13.6417 7.65008 13.6417 7.30842V6.50008C11.5167 8.68341 8.85832 10.2251 5.88332 10.9667C5.83332 10.9834 5.78332 10.9834 5.73332 10.9834C5.44999 10.9834 5.19999 10.7917 5.12499 10.5084C5.04166 10.1751 5.24166 9.83342 5.58332 9.75008C8.39166 9.05008 10.8917 7.57508 12.875 5.49175H11.8333C11.4917 5.49175 11.2083 5.20842 11.2083 4.86675C11.2083 4.52508 11.4917 4.24175 11.8333 4.24175H14.275C14.3083 4.24175 14.3333 4.25841 14.3667 4.25841C14.4083 4.26675 14.45 4.26675 14.4917 4.28341C14.5333 4.30008 14.5667 4.32508 14.6083 4.35008C14.6333 4.36675 14.6583 4.37508 14.6833 4.39175C14.6917 4.40008 14.6917 4.40841 14.7 4.40841C14.7333 4.44175 14.7583 4.47508 14.7833 4.50841C14.8083 4.54175 14.8333 4.56675 14.8417 4.60008C14.8583 4.63341 14.8583 4.66675 14.8667 4.70842C14.875 4.75008 14.8917 4.79175 14.8917 4.84175C14.8917 4.85008 14.9 4.85841 14.9 4.86675V7.30842H14.8917Z" fill="white"/>
</svg>
